<mxfile host="app.diagrams.net" modified="2023-02-14T09:54:42.935Z" agent="5.0 (X11; Ubuntu)" etag="sFNunPRLc__BnrJf2d22" version="20.8.20" type="github">
  <diagram id="C5RBs43oDa-KdzZeNtuy" name="Page-1">
    <mxGraphModel dx="1434" dy="1846" grid="1" gridSize="10" guides="1" tooltips="1" connect="1" arrows="1" fold="1" page="1" pageScale="1" pageWidth="827" pageHeight="1169" math="0" shadow="0">
      <root>
        <mxCell id="WIyWlLk6GJQsqaUBKTNV-0" />
        <mxCell id="WIyWlLk6GJQsqaUBKTNV-1" parent="WIyWlLk6GJQsqaUBKTNV-0" />
        <mxCell id="CyxNVvdQWvEYHXwhOmgi-0" value="" style="rounded=1;whiteSpace=wrap;html=1;strokeWidth=2;fillWeight=4;hachureGap=8;hachureAngle=45;fillColor=#dae8fc;sketch=1;strokeColor=#6c8ebf;" vertex="1" parent="WIyWlLk6GJQsqaUBKTNV-1">
          <mxGeometry x="30" y="120" width="120" height="60" as="geometry" />
        </mxCell>
        <mxCell id="CyxNVvdQWvEYHXwhOmgi-3" value="" style="group" vertex="1" connectable="0" parent="WIyWlLk6GJQsqaUBKTNV-1">
          <mxGeometry x="30" y="20" width="210" height="80" as="geometry" />
        </mxCell>
        <mxCell id="CyxNVvdQWvEYHXwhOmgi-1" value="&lt;ul&gt;&lt;li&gt;create loop for a 9 x 9 board&lt;br&gt;&lt;/li&gt;&lt;/ul&gt;" style="text;strokeColor=none;fillColor=none;html=1;whiteSpace=wrap;verticalAlign=top;overflow=hidden;align=left;" vertex="1" parent="CyxNVvdQWvEYHXwhOmgi-3">
          <mxGeometry y="30" width="209.99999999999997" height="50" as="geometry" />
        </mxCell>
        <mxCell id="CyxNVvdQWvEYHXwhOmgi-2" value="&lt;div&gt;Creat board&lt;br&gt;&lt;/div&gt;" style="text;strokeColor=none;fillColor=none;html=1;fontSize=24;fontStyle=1;verticalAlign=middle;align=left;" vertex="1" parent="CyxNVvdQWvEYHXwhOmgi-3">
          <mxGeometry width="57.58064516129032" height="40" as="geometry" />
        </mxCell>
        <mxCell id="CyxNVvdQWvEYHXwhOmgi-4" value="create board" style="text;html=1;strokeColor=none;fillColor=none;align=center;verticalAlign=middle;whiteSpace=wrap;rounded=0;" vertex="1" parent="WIyWlLk6GJQsqaUBKTNV-1">
          <mxGeometry x="60" y="135" width="60" height="30" as="geometry" />
        </mxCell>
        <mxCell id="CyxNVvdQWvEYHXwhOmgi-14" value="" style="edgeStyle=orthogonalEdgeStyle;rounded=0;orthogonalLoop=1;jettySize=auto;html=1;" edge="1" parent="WIyWlLk6GJQsqaUBKTNV-1" source="CyxNVvdQWvEYHXwhOmgi-10" target="CyxNVvdQWvEYHXwhOmgi-13">
          <mxGeometry relative="1" as="geometry" />
        </mxCell>
        <mxCell id="CyxNVvdQWvEYHXwhOmgi-10" value="" style="rounded=1;whiteSpace=wrap;html=1;strokeWidth=2;fillWeight=4;hachureGap=8;hachureAngle=45;fillColor=#fff2cc;sketch=1;strokeColor=#d6b656;" vertex="1" parent="WIyWlLk6GJQsqaUBKTNV-1">
          <mxGeometry x="30" y="260" width="120" height="60" as="geometry" />
        </mxCell>
        <mxCell id="CyxNVvdQWvEYHXwhOmgi-12" value="Loop 9 rows" style="text;html=1;strokeColor=none;fillColor=none;align=center;verticalAlign=middle;whiteSpace=wrap;rounded=0;" vertex="1" parent="WIyWlLk6GJQsqaUBKTNV-1">
          <mxGeometry x="60" y="275" width="60" height="30" as="geometry" />
        </mxCell>
        <mxCell id="CyxNVvdQWvEYHXwhOmgi-17" value="" style="edgeStyle=orthogonalEdgeStyle;rounded=0;orthogonalLoop=1;jettySize=auto;html=1;" edge="1" parent="WIyWlLk6GJQsqaUBKTNV-1" source="CyxNVvdQWvEYHXwhOmgi-13" target="CyxNVvdQWvEYHXwhOmgi-16">
          <mxGeometry relative="1" as="geometry" />
        </mxCell>
        <mxCell id="CyxNVvdQWvEYHXwhOmgi-13" value="" style="rounded=1;whiteSpace=wrap;html=1;strokeWidth=2;fillWeight=4;hachureGap=8;hachureAngle=45;fillColor=#fff2cc;sketch=1;strokeColor=#d6b656;" vertex="1" parent="WIyWlLk6GJQsqaUBKTNV-1">
          <mxGeometry x="30" y="400" width="120" height="60" as="geometry" />
        </mxCell>
        <mxCell id="CyxNVvdQWvEYHXwhOmgi-15" value="Loop 9 columns" style="text;html=1;strokeColor=none;fillColor=none;align=center;verticalAlign=middle;whiteSpace=wrap;rounded=0;" vertex="1" parent="WIyWlLk6GJQsqaUBKTNV-1">
          <mxGeometry x="60" y="415" width="60" height="30" as="geometry" />
        </mxCell>
        <mxCell id="CyxNVvdQWvEYHXwhOmgi-21" value="" style="edgeStyle=orthogonalEdgeStyle;rounded=0;orthogonalLoop=1;jettySize=auto;html=1;" edge="1" parent="WIyWlLk6GJQsqaUBKTNV-1" source="CyxNVvdQWvEYHXwhOmgi-16" target="CyxNVvdQWvEYHXwhOmgi-20">
          <mxGeometry relative="1" as="geometry" />
        </mxCell>
        <mxCell id="CyxNVvdQWvEYHXwhOmgi-16" value="" style="rounded=1;whiteSpace=wrap;html=1;strokeWidth=2;fillWeight=4;hachureGap=8;hachureAngle=45;fillColor=#fff2cc;sketch=1;strokeColor=#d6b656;" vertex="1" parent="WIyWlLk6GJQsqaUBKTNV-1">
          <mxGeometry x="30" y="540" width="120" height="60" as="geometry" />
        </mxCell>
        <mxCell id="CyxNVvdQWvEYHXwhOmgi-18" value="Set each value to 0" style="text;html=1;strokeColor=none;fillColor=none;align=center;verticalAlign=middle;whiteSpace=wrap;rounded=0;" vertex="1" parent="WIyWlLk6GJQsqaUBKTNV-1">
          <mxGeometry x="60" y="555" width="60" height="30" as="geometry" />
        </mxCell>
        <mxCell id="CyxNVvdQWvEYHXwhOmgi-19" value="" style="edgeStyle=orthogonalEdgeStyle;rounded=0;orthogonalLoop=1;jettySize=auto;html=1;" edge="1" parent="WIyWlLk6GJQsqaUBKTNV-1">
          <mxGeometry relative="1" as="geometry">
            <mxPoint x="89.5" y="180" as="sourcePoint" />
            <mxPoint x="89.5" y="260" as="targetPoint" />
            <Array as="points">
              <mxPoint x="89.5" y="200" />
              <mxPoint x="89.5" y="200" />
            </Array>
          </mxGeometry>
        </mxCell>
        <mxCell id="CyxNVvdQWvEYHXwhOmgi-20" value="" style="rounded=1;whiteSpace=wrap;html=1;strokeWidth=2;fillWeight=4;hachureGap=8;hachureAngle=45;fillColor=#d5e8d4;sketch=1;strokeColor=#82b366;" vertex="1" parent="WIyWlLk6GJQsqaUBKTNV-1">
          <mxGeometry x="30" y="680" width="120" height="60" as="geometry" />
        </mxCell>
        <mxCell id="CyxNVvdQWvEYHXwhOmgi-22" value="return board" style="text;html=1;strokeColor=none;fillColor=none;align=center;verticalAlign=middle;whiteSpace=wrap;rounded=0;" vertex="1" parent="WIyWlLk6GJQsqaUBKTNV-1">
          <mxGeometry x="60" y="695" width="60" height="30" as="geometry" />
        </mxCell>
      </root>
    </mxGraphModel>
  </diagram>
</mxfile>
